<svg width="97" height="86" viewBox="0 0 97 86" fill="none" xmlns="http://www.w3.org/2000/svg">
<path d="M73.2475 38.7125C75.185 40.6801 75.1727 43.8581 73.2201 45.8107L61.2555 57.7753C59.3029 59.7279 56.1493 59.7157 54.2118 57.7481V57.7481C52.2743 55.7805 52.2866 52.6025 54.2392 50.6499L66.2038 38.6853C68.1564 36.7327 71.3099 36.7448 73.2475 38.7125V38.7125Z" fill="url(#paint0_linear_88_166)"/>
<path d="M69.0385 79.9999C69.0598 77.2385 70.1334 75 71.4365 75H93.7378C95.0408 75 96.0763 75 96.0586 79.9999C96.0409 84.9997 94.9637 84.9997 93.6607 84.9997H71.3594C70.0563 84.9997 69.0172 82.7612 69.0385 79.9999Z" fill="url(#paint1_linear_88_166)"/>
<path d="M73.5895 35.0386C76.3508 35.0599 78.5894 37.0318 78.5894 39.4431V80.7111C78.5894 83.1224 78.5894 85.0386 73.5895 85.0386C68.5897 85.0386 68.5897 83.0453 68.5897 80.634V39.366C68.5897 36.9547 70.8282 35.0173 73.5895 35.0386Z" fill="url(#paint2_linear_88_166)"/>
<path d="M38.8418 36.4033C40.8094 34.4658 43.9874 34.4781 45.94 36.4307L61.3871 51.8778C63.3397 53.8304 63.3276 56.984 61.36 58.9215V58.9215C59.3923 60.859 56.2143 60.8467 54.2617 58.8941L38.8146 43.447C36.862 41.4944 36.8742 38.3408 38.8418 36.4033V36.4033Z" fill="url(#paint3_linear_88_166)"/>
<path d="M60.4325 60.4325C50.695 70.17 34.7925 70.1478 24.9129 60.2683C15.0334 50.3887 15.0113 34.4862 24.7487 24.7487C34.4862 15.0113 50.3887 15.0334 60.2683 24.913C70.1478 34.7925 70.1699 50.6951 60.4325 60.4325Z" stroke="url(#paint4_linear_88_166)" stroke-width="10"/>
<path d="M42.3885 35.012C45.1499 35.0333 47.3884 37.0053 47.3884 39.4166V80.6846C47.3884 83.0959 47.3884 85.012 42.3885 85.012C37.3887 85.012 37.3887 83.0188 37.3887 80.6075V39.3395C37.3887 36.9282 39.6272 34.9907 42.3885 35.012Z" fill="url(#paint5_linear_88_166)"/>
<defs>
<linearGradient id="paint0_linear_88_166" x1="67.2378" y1="51.793" x2="60.1669" y2="44.7221" gradientUnits="userSpaceOnUse">
<stop offset="0.0989583" stop-color="#FDA415"/>
<stop offset="0.911458" stop-color="#AD34D5"/>
</linearGradient>
<linearGradient id="paint1_linear_88_166" x1="82.5871" y1="75" x2="82.5871" y2="84.9997" gradientUnits="userSpaceOnUse">
<stop offset="0.0989583" stop-color="#FDA415"/>
<stop offset="0.770833" stop-color="#AD34D5"/>
</linearGradient>
<linearGradient id="paint2_linear_88_166" x1="78.5894" y1="60.0774" x2="69.027" y2="63.5737" gradientUnits="userSpaceOnUse">
<stop stop-color="#FDA415"/>
<stop offset="1" stop-color="#AD34D5"/>
</linearGradient>
<linearGradient id="paint3_linear_88_166" x1="53.6636" y1="44.1542" x2="46.5927" y2="51.2251" gradientUnits="userSpaceOnUse">
<stop offset="0.0989583" stop-color="#FDA415"/>
<stop offset="0.864583" stop-color="#AD34D5"/>
</linearGradient>
<linearGradient id="paint4_linear_88_166" x1="71.9657" y1="40.9934" x2="12.2842" y2="43.4048" gradientUnits="userSpaceOnUse">
<stop stop-color="#FDA415"/>
<stop offset="0.989583" stop-color="#AD34D5"/>
</linearGradient>
<linearGradient id="paint5_linear_88_166" x1="47.3884" y1="60.0506" x2="37.3887" y2="60.0506" gradientUnits="userSpaceOnUse">
<stop offset="0.0989583" stop-color="#FDA415"/>
<stop offset="0.90625" stop-color="#AD34D5"/>
</linearGradient>
</defs>
</svg>
